<svg xmlns="http://www.w3.org/2000/svg" xmlns:xlink="http://www.w3.org/1999/xlink" width="128" height="64" viewBox="0 0 33.867 16.933"><path fill="#444688" d="M15.537 8.467L-.008 16.933V0z"/><g fill="#b3b"><use stroke="#bbc" stroke-width="2.11" xlink:href="#B"/><use stroke="#b3b" stroke-width=".71" xlink:href="#B"/></g><defs><path id="B" d="M25.402 1.63a.339.339 0 0 0-.338.338v4.595l-4.116-2.487a.339.339 0 0 0-.467.12l-.8 1.364a.339.339 0 0 0 .131.469L24.2 8.406l-4.397 2.387a.339.339 0 0 0-.131.47l.8 1.35a.339.339 0 0 0 .467.119l4.116-2.487v4.594a.339.339 0 0 0 .338.338h1.572a.339.339 0 0 0 .338-.338v-4.595l4.116 2.487a.339.339 0 0 0 .467-.119l.8-1.35a.339.339 0 0 0-.131-.47l-4.397-2.387 4.397-2.377a.339.339 0 0 0 .131-.469l-.8-1.364a.339.339 0 0 0-.467-.12l-4.116 2.488V1.97a.339.339 0 0 0-.338-.338z"/></defs></svg>