<svg xmlns="http://www.w3.org/2000/svg" xmlns:xlink="http://www.w3.org/1999/xlink" viewBox="0 0 64 64"><defs><path id="a" d="m51.33 4.938a1.06 1.06 0 00-1.056 1.056 1.06 1.06 0 001.056 1.056 1.06 1.06 0 001.056-1.056 1.06 1.06 0 00-1.056-1.056z"/></defs><g fill="#f9f9f9" stroke="#333" stroke-linejoin="round"><path stroke-width="1.939" d="m.97.97h62.06v62.06h-62.06z"/><path stroke-width="1.826" d="m.97.97h62.06v10.53h-62.06z"/></g><g fill="#333"><use xlink:href="#a"/><use x="-5.414" xlink:href="#a"/><path d="m56.743 4.938a1.06 1.06 0 00-1.056 1.056 1.06 1.06 0 001.056 1.056 1.06 1.06 0 001.057-1.056 1.06 1.06 0 00-1.056-1.056z"/></g><g fill="none" stroke-linecap="round" stroke-linejoin="round" stroke-width="2.5"><path stroke="#999" d="m19.06 22.36h30.994"/><path stroke="red" d="m11 22.36h2.17"/><path stroke="#999" d="m19.06 30.013h11.962m4.988 0h13.26"/><path stroke="purple" d="m11 30.013h2.17"/><path stroke="#999" d="m19.06 52.67h30.59"/><path stroke="purple" d="m11 52.67h2.17"/><path stroke="#999" d="m19.06 45.167h33.803"/><path stroke="green" d="m11 45.167h2.17"/><path stroke="#999" d="m19.06 37.664h4.965m4.422 0h24.553"/><path stroke="green" d="m11 37.664h2.17"/></g></svg>