<svg xmlns="http://www.w3.org/2000/svg" xmlns:svg="http://www.w3.org/2000/svg" id="svg4" width="64" height="64" enable-background="new 0 0 128 128" version="1.1" viewBox="0 0 64 64"><metadata id="metadata10"/><path style="fill:red;fill-opacity:1;stroke-width:1.49337" id="path2" d="m -54.220806,1.3256806 -0.0088,0.00584 -4.159276,4.1971947 c -1.612535,1.6158055 -1.611596,4.2860591 0.0029,5.9005727 0.0019,0.003 0.0039,0.0058 0.0058,0.0088 l 13.749531,13.644528 -13.752448,13.688277 c -9.72e-4,9.93e-4 -0.0019,0.0019 -0.0029,0.003 l -0.0029,0.003 c -1.615503,1.615502 -1.615503,4.287985 0,5.903489 l 4.203028,4.203028 c 1.614513,1.614512 4.284767,1.615451 5.900573,0.003 l 0.003,-0.003 13.755365,-13.656194 13.586192,13.650361 c 9.93e-4,9.97e-4 0.0019,0.0019 0.003,0.003 l 0.003,0.003 c 1.615504,1.615502 4.287987,1.615502 5.903489,0 l 4.200111,-4.203028 c 1.6148875,-1.614887 1.6142364,-4.285169 0.003,-5.900572 -4.542378,-4.565688 -9.084733,-9.131397 -13.627097,-13.697099 l 13.586194,-13.653277 c 1.1720495,-2.2295375 1.3411769,-4.5619095 -0.06118,-5.9648123 L -15.072271,1.319847 c -1.614884,-1.614883 -4.28739,-1.61405762 -5.903491,0 -0.0019,0.00291 -0.0039,0.00582 -0.0058,0.00875 -0.006,0.00576 -0.0118,0.011603 -0.0175,0.017501 l -13.530775,13.629944 -13.790364,-13.6561946 -0.003,-0.00291 c -1.826019,-1.53010008 -4.319066,-1.52665203 -5.897592,0.00874 z m -4.165111,10.1036004 -0.198338,-0.274174 c 0.05136,0.101206 0.118288,0.193723 0.198338,0.274174 z"/><g style="fill:red;fill-opacity:1" id="g892" transform="matrix(1.126621,0,0,1.126621,-4.2774592,-4.4484644)"><rect id="rect841-6" width="15.598" height="55.888" x="-7.799" y="17.311" ry="7.461" transform="rotate(-45)" style="fill:red;fill-opacity:1;stroke-width:0;stroke-linecap:round;stroke-linejoin:round"/><rect style="fill:red;fill-opacity:1;stroke-width:0;stroke-linecap:round;stroke-linejoin:round" id="rect841-6-7" width="15.598" height="55.888" x="-53.054" y="-27.944" ry="7.461" transform="matrix(-0.70710678,-0.70710678,-0.70710678,0.70710678,0,0)"/></g></svg>