<svg xmlns="http://www.w3.org/2000/svg" xmlns:svg="http://www.w3.org/2000/svg" id="svg4" width="64" height="64" enable-background="new 0 0 48 48" version="1.1" viewBox="0 0 64 64"><metadata id="metadata10"/><path style="fill:#71c837;fill-opacity:1" id="path2" d="m 38.386719,8.0898438 a 0.77199966,0.77199966 0 0 0 -0.310547,0.060547 c -0.678108,0.055978 -1.309398,0.3109029 -1.833984,0.7441406 A 0.77199966,0.77199966 0 0 0 35.988281,9.0625 a 0.77199966,0.77199966 0 0 0 -0.002,0.00195 l -18.015625,18.0136719 -5.933594,-5.931641 -0.002,-0.002 c -1.290282,-1.289385 -3.471971,-1.270468 -4.7402341,0.04102 l -2.40625,2.492187 c -0.00112,0.0011 -0.00279,0.0028 -0.00391,0.0039 l -0.00586,0.0059 a 0.77199966,0.77199966 0 0 0 -0.00195,0.0039 c -1.240733,1.286636 -1.2160681,3.408012 0.052734,4.666016 L 15.630859,38.972656 c 1.201136,1.190978 3.141588,1.218435 4.429688,0.164063 0.0011,-9.33e-4 0.0028,-0.001 0.0039,-0.002 a 0.77199966,0.77199966 0 0 0 0.253906,-0.167969 0.77199966,0.77199966 0 0 0 0.002,-0.002 l 22.78125,-22.783203 c 1.276413,-1.276413 1.276413,-3.424759 0,-4.701172 L 40.6875,9.0625 A 0.77199966,0.77199966 0 0 0 40.429688,8.890625 C 39.849702,8.4105471 39.143976,8.1014226 38.386719,8.0898438 Z" transform="matrix(1.5961353,0,0,1.5961353,-6.3239208,-6.2976672)"/></svg>